<svg id="Layer_1" data-name="Layer 1" xmlns="http://www.w3.org/2000/svg" viewBox="0 0 64 64"><defs><style>.cls-1{fill:#3953a4;}.cls-1,.cls-2{stroke:#000;stroke-miterlimit:10;}.cls-2{fill:#c93;}</style></defs><title>Partitions - Gyronny</title><path class="cls-1" d="M54.91,30.19A48.14,48.14,0,0,1,49.57,44,47.91,47.91,0,0,1,32,61.57,48,48,0,0,1,8,20V4H56V20A48.32,48.32,0,0,1,54.91,30.19Z"/><path class="cls-2" d="M10,4H32V61c0,.2.25.42.38.34l.5-.3A48.08,48.08,0,0,0,49,45L8.34,4.34l-.13-.13Q8,4,8.24,4H10Z"/><path class="cls-2" d="M50.87,9.13l3.27-3.27,1.15-1.15c.46-.46.71,0,.71,0V20a48.53,48.53,0,0,1-.67,8H8.67A47.89,47.89,0,0,0,15,45Z"/></svg>