<svg id="Layer_1" data-name="Layer 1" xmlns="http://www.w3.org/2000/svg" viewBox="0 0 64 64"><defs><style>.cls-1{fill:#3953a4;}.cls-1,.cls-2{stroke:#000;stroke-miterlimit:10;}.cls-2{fill:#c93;}</style></defs><title>Partitions - Per Saltire</title><path class="cls-1" d="M54.91,30.19A48.14,48.14,0,0,1,49.57,44,47.91,47.91,0,0,1,32,61.57,48,48,0,0,1,8,20V4H56V20A48.32,48.32,0,0,1,54.91,30.19Z"/><path class="cls-2" d="M48,46.47c.33-.49.64-1,1-1.49L9,5,8.5,4.5c-.17-.17-.28-.5.13-.5H55.81c.13,0,.11.08.07.12L15,45A47.93,47.93,0,0,0,32,61.57,47.9,47.9,0,0,0,48,46.47Z"/></svg>