<svg id="Layer_1" data-name="Layer 1" xmlns="http://www.w3.org/2000/svg" viewBox="0 0 64 64"><defs><style>.cls-1{fill:#3953a4;}.cls-1,.cls-2{stroke:#000;stroke-miterlimit:10;}.cls-2{fill:#c93;}</style></defs><title>Sub-Ordinaries - Flanches</title><path class="cls-1" d="M9.09,30.19A48,48,0,0,0,32,61.57,47.91,47.91,0,0,0,49.57,44,48,48,0,0,0,56,20V4H8V20A48.32,48.32,0,0,0,9.09,30.19Z"/><path class="cls-2" d="M43.87,20.15A19.81,19.81,0,0,1,56,16v4A48,48,0,0,1,43.87,51.9a19.95,19.95,0,0,1,0-31.75Z"/><path class="cls-2" d="M18.76,19.18A19.78,19.78,0,0,0,8,16v4A47.91,47.91,0,0,0,20.13,51.89a20,20,0,0,0-1.37-32.71Z"/></svg>