<svg id="Layer_1" data-name="Layer 1" xmlns="http://www.w3.org/2000/svg" viewBox="0 0 64 64"><defs><style>.cls-1{fill:#3953a4;}.cls-1,.cls-2{stroke:#000;stroke-miterlimit:10;}.cls-2{fill:#c93;}</style></defs><title>Sub-Ordinaries - Orle</title><path class="cls-1" d="M9.09,30.19A48,48,0,0,0,32,61.57,47.91,47.91,0,0,0,49.57,44,48,48,0,0,0,56,20V4H8V20A48.32,48.32,0,0,0,9.09,30.19Z"/><path class="cls-2" d="M12.91,30.62A40,40,0,0,0,32,56.77,40,40,0,0,0,52,22.13V8.8H12V22.13A40.21,40.21,0,0,0,12.91,30.62Z"/><path class="cls-1" d="M16.73,31.05A32,32,0,0,0,32,52,32,32,0,0,0,48,24.26V13.59H16V24.26A32.16,32.16,0,0,0,16.73,31.05Z"/></svg>