<svg id="Layer_1" data-name="Layer 1" xmlns="http://www.w3.org/2000/svg" xmlns:xlink="http://www.w3.org/1999/xlink" viewBox="0 0 64 64"><defs><style>.cls-1{fill:none;}.cls-2{fill:#3953a4;}.cls-2,.cls-3{stroke:#000;stroke-miterlimit:10;}.cls-3{fill:url(#Potent);}</style><pattern id="Potent" data-name="Potent" width="24" height="16" patternTransform="translate(6)" patternUnits="userSpaceOnUse" viewBox="0 0 24 16"><rect class="cls-1" width="24" height="16"/><polygon class="cls-2" points="16 20 16 16 20 16 20 12 28 12 28 16 32 16 32 20 16 20"/><polygon class="cls-2" points="-8 20 -8 16 -4 16 -4 12 4 12 4 16 8 16 8 20 -8 20"/><polygon class="cls-2" points="4 12 4 8 8 8 8 4 16 4 16 8 20 8 20 12 4 12"/><polygon class="cls-2" points="16 4 16 0 20 0 20 -4 28 -4 28 0 32 0 32 4 16 4"/><polygon class="cls-2" points="-8 4 -8 0 -4 0 -4 -4 4 -4 4 0 8 0 8 4 -8 4"/></pattern></defs><title>Colours - Potent</title><path class="cls-3" d="M54.91,30.19A48.14,48.14,0,0,1,49.57,44,47.91,47.91,0,0,1,32,61.57,48,48,0,0,1,8,20V4H56V20A48.32,48.32,0,0,1,54.91,30.19Z"/></svg>