<svg id="Layer_1" data-name="Layer 1" xmlns="http://www.w3.org/2000/svg" xmlns:xlink="http://www.w3.org/1999/xlink" viewBox="0 0 64 64"><defs><style>.cls-1{fill:none;}.cls-2{fill:#3953a4;}.cls-2,.cls-3{stroke:#000;stroke-miterlimit:10;}.cls-3{fill:url(#Vair);}</style><pattern id="Vair" data-name="Vair" width="32" height="32" patternTransform="translate(3)" patternUnits="userSpaceOnUse" viewBox="0 0 32 32"><rect class="cls-1" width="32" height="32"/><polygon class="cls-2" points="40 24.05 44 26.72 44 37.38 48 40.05 40 40.05 32 40.05 36 37.38 36 26.72 40 24.05"/><polygon class="cls-2" points="24 24.05 28 26.72 28 37.38 32 40.05 24 40.05 16 40.05 20 37.38 20 26.72 24 24.05"/><polygon class="cls-2" points="8 24.05 12 26.72 12 37.38 16 40.05 8 40.05 0 40.05 4 37.38 4 26.72 8 24.05"/><polygon class="cls-2" points="-8 24.05 -4 26.72 -4 37.38 0 40.05 -8 40.05 -16 40.05 -12 37.38 -12 26.72 -8 24.05"/><polygon class="cls-2" points="32 8.05 36 10.72 36 21.38 40 24.05 32 24.05 24 24.05 28 21.38 28 10.72 32 8.05"/><polygon class="cls-2" points="16 8.05 20 10.72 20 21.38 24 24.05 16 24.05 8 24.05 12 21.38 12 10.72 16 8.05"/><polygon class="cls-2" points="0 8.05 4 10.72 4 21.38 8 24.05 0 24.05 -8 24.05 -4 21.38 -4 10.72 0 8.05"/><polygon class="cls-2" points="40 -7.95 44 -5.28 44 5.38 48 8.05 40 8.05 32 8.05 36 5.38 36 -5.28 40 -7.95"/><polygon class="cls-2" points="24 -7.95 28 -5.28 28 5.38 32 8.05 24 8.05 16 8.05 20 5.38 20 -5.28 24 -7.95"/><polygon class="cls-2" points="8 -7.95 12 -5.28 12 5.38 16 8.05 8 8.05 0 8.05 4 5.38 4 -5.28 8 -7.95"/><polygon class="cls-2" points="-8 -7.95 -4 -5.28 -4 5.38 0 8.05 -8 8.05 -16 8.05 -12 5.38 -12 -5.28 -8 -7.95"/></pattern></defs><title>Colours - Vair</title><path class="cls-3" d="M54.91,30.19A48.14,48.14,0,0,1,49.57,44,47.91,47.91,0,0,1,32,61.57,48,48,0,0,1,8,20V4H56V20A48.32,48.32,0,0,1,54.91,30.19Z"/></svg>