<svg id="Layer_1" data-name="Layer 1" xmlns="http://www.w3.org/2000/svg" xmlns:xlink="http://www.w3.org/1999/xlink" viewBox="0 0 64 64"><defs><style>.cls-1{fill:none;}.cls-2,.cls-3,.cls-4{stroke:#000;stroke-miterlimit:10;}.cls-3{stroke-width:0.5px;}.cls-4{fill:url(#Ermine);}</style><pattern id="Ermine" data-name="Ermine" width="27" height="30" patternUnits="userSpaceOnUse" viewBox="0 0 27 30"><rect class="cls-1" width="27" height="30"/><polygon class="cls-2" points="27 26.09 24 33.09 26 33.09 27 36.09 28 33.09 30 33.09 27 26.09"/><circle class="cls-3" cx="25.5" cy="25.08" r="0.5"/><circle class="cls-3" cx="27" cy="23.08" r="0.5"/><polygon class="cls-2" points="18 26.09 15 33.09 17 33.09 18 36.09 19 33.09 21 33.09 18 26.09"/><circle class="cls-3" cx="16.5" cy="25.08" r="0.5"/><circle class="cls-3" cx="19.5" cy="25.08" r="0.5"/><circle class="cls-3" cx="18" cy="23.08" r="0.5"/><polygon class="cls-2" points="9 26.09 6 33.09 8 33.09 9 36.09 10 33.09 12 33.09 9 26.09"/><circle class="cls-3" cx="7.5" cy="25.08" r="0.5"/><circle class="cls-3" cx="10.5" cy="25.08" r="0.5"/><circle class="cls-3" cx="9" cy="23.08" r="0.5"/><polygon class="cls-2" points="0 26.09 -3 33.09 -1 33.09 0 36.09 1 33.09 3 33.09 0 26.09"/><circle class="cls-3" cx="1.5" cy="25.08" r="0.5"/><circle class="cls-3" cy="23.08" r="0.5"/><polygon class="cls-2" points="22.5 11.09 19.5 18.09 21.5 18.09 22.5 21.09 23.5 18.09 25.5 18.09 22.5 11.09"/><circle class="cls-3" cx="21" cy="10.08" r="0.5"/><circle class="cls-3" cx="24" cy="10.08" r="0.5"/><circle class="cls-3" cx="22.5" cy="8.08" r="0.5"/><polygon class="cls-2" points="13.5 11.09 10.5 18.09 12.5 18.09 13.5 21.09 14.5 18.09 16.5 18.09 13.5 11.09"/><circle class="cls-3" cx="12" cy="10.08" r="0.5"/><circle class="cls-3" cx="15" cy="10.08" r="0.5"/><circle class="cls-3" cx="13.5" cy="8.08" r="0.5"/><polygon class="cls-2" points="4.5 11.09 1.5 18.09 3.5 18.09 4.5 21.09 5.5 18.09 7.5 18.09 4.5 11.09"/><circle class="cls-3" cx="3" cy="10.08" r="0.5"/><circle class="cls-3" cx="6" cy="10.08" r="0.5"/><circle class="cls-3" cx="4.5" cy="8.08" r="0.5"/><polygon class="cls-2" points="27 -3.92 24 3.08 26 3.08 27 6.08 28 3.08 30 3.08 27 -3.92"/><polygon class="cls-2" points="18 -3.92 15 3.08 17 3.08 18 6.08 19 3.08 21 3.08 18 -3.92"/><polygon class="cls-2" points="9 -3.92 6 3.08 8 3.08 9 6.08 10 3.08 12 3.08 9 -3.92"/><polygon class="cls-2" points="0 -3.92 -3 3.08 -1 3.08 0 6.08 1 3.08 3 3.08 0 -3.92"/></pattern></defs><title>Colours - Ermine</title><path class="cls-4" d="M54.91,30.19A48.14,48.14,0,0,1,49.57,44,47.91,47.91,0,0,1,32,61.57,48,48,0,0,1,8,20V4H56V20A48.32,48.32,0,0,1,54.91,30.19Z"/></svg>