<svg id="Layer_1" data-name="Layer 1" xmlns="http://www.w3.org/2000/svg" viewBox="0 0 64 64"><defs><style>.cls-1{fill:#3953a4;}.cls-1,.cls-2{stroke:#000;stroke-miterlimit:10;}.cls-2{fill:#c93;}</style></defs><title>Ordinaries - Cross</title><path class="cls-1" d="M54.91,30.19A48.14,48.14,0,0,1,49.57,44,47.91,47.91,0,0,1,32,61.57,48,48,0,0,1,8,20V4H56V20A48.32,48.32,0,0,1,54.91,30.19Z"/><path class="cls-2" d="M43.8,24H36V4H28V24H8.17a48.62,48.62,0,0,0,.92,6.19c.14.6.28,1.21.43,1.81H28V59q1.93,1.38,4,2.58c.69-.4,1.37-.81,2-1.24s1.35-.9,2-1.34V32H54.48c.31-1.21.6-2.54.84-4s.4-2.68.51-4h-12Z"/></svg>