<svg id="Layer_1" data-name="Layer 1" xmlns="http://www.w3.org/2000/svg" viewBox="0 0 64 64"><defs><style>.cls-1{fill:#3953a4;}.cls-1,.cls-2{stroke:#000;stroke-miterlimit:10;}.cls-2{fill:#c93;}</style></defs><title>Ordinaries - Chevron</title><path class="cls-1" d="M9.09,30.19A48,48,0,0,0,32,61.57,47.91,47.91,0,0,0,49.57,44,48,48,0,0,0,56,20V4H8V20A48.32,48.32,0,0,0,9.09,30.19Z"/><path class="cls-2" d="M11.12,36.88l0,0A48.17,48.17,0,0,0,14.43,44c.68,1.17,1.4,2.3,2.16,3.41L32,32,47.41,47.41a48.23,48.23,0,0,0,5.51-10.49L32,16Z"/></svg>