<svg id="Layer_1" data-name="Layer 1" xmlns="http://www.w3.org/2000/svg" viewBox="0 0 64 64"><defs><style>.cls-1{fill:#3953a4;}.cls-1,.cls-2{stroke:#000;stroke-miterlimit:10;}.cls-2{fill:#c93;}</style></defs><title>Ordinaries - Saltire</title><path class="cls-1" d="M9.09,30.19A48,48,0,0,0,32,61.57,47.91,47.91,0,0,0,49.57,44,48,48,0,0,0,56,20V4H8V20A48.32,48.32,0,0,0,9.09,30.19Z"/><path class="cls-2" d="M32.42,21.58,32,22l-.07-.07L14,4H8v6l1.25,1.25,4.24,4.24L26,28,12.89,41.11C13.43,42.2,14,43.17,14.43,44a49.94,49.94,0,0,0,3,4.57L31.25,34.75,32,34,46.57,48.57a49.94,49.94,0,0,0,3-4.57c.48-.83,1-1.8,1.54-2.89L38,28,50.51,15.49l4.24-4.24L56,10V4H50L32.83,21.17Z"/></svg>